PathFileType	4	(X/Y/Z)	Patient4_TMGait_0pt6_02_right_06.trc.trc
DataRate	CameraRate	NumFrames	NumMarkers	Units	OrigDataRate	OrigDataStartFrame	OrigNumFrames
82.352941176471	82.352941176471	4	33	mm	82.352941176471	89	       141
Frame#	Time	Sacral			L.Shoulder			Chest			R.Shoulder			Neck			R.ASIS			L.ASIS			R.Thigh.Superior			R.Thigh.Lateral			R.Thigh.Inferior			R.Patella			L.Thigh.Superior			L.Thigh.Lateral			L.Thigh.Inferior			L.Patella			L.Shank.Superior			L.Shank.Lateral			L.Shank.Inferior			R.Shank.Superior			R.Shank.Lateral			R.Shank.Inferior			R.Heel			R.Midfoot.Superior			R.Midfoot.Lateral			R.Toe			L.Heel			L.Midfoot.Lateral			L.Midfoot.Superior			L.Toe			L.Elbow			L.Wrist			R.Elbow			R.Wrist			
		X1	Y1	Z1	X2	Y2	Z2	X3	Y3	Z3	X4	Y4	Z4	X5	Y5	Z5	X6	Y6	Z6	X7	Y7	Z7	X8	Y8	Z8	X9	Y9	Z9	X10	Y10	Z10	X11	Y11	Z11	X12	Y12	Z12	X13	Y13	Z13	X14	Y14	Z14	X15	Y15	Z15	X16	Y16	Z16	X17	Y17	Z17	X18	Y18	Z18	X19	Y19	Z19	X20	Y20	Z20	X21	Y21	Z21	X22	Y22	Z22	X23	Y23	Z23	X24	Y24	Z24	X25	Y25	Z25	X26	Y26	Z26	X27	Y27	Z27	X28	Y28	Z28	X29	Y29	Z29	X30	Y30	Z30	X31	Y31	Z31	X32	Y32	Z32	X33	Y33	Z33	

89	7.718571428571	722.469945448150	1005.957582538440	481.788354697627	869.221079195259	1432.107211819608	288.673452576631	991.390664813696	1366.789726002286	437.618822605761	924.701953903057	1441.247874488708	617.534435247767	866.076758149756	1492.157848520083	443.690401431999	952.736705041123	935.655031447226	582.447018041159	925.069560839067	962.270033399264	311.103888160737	993.073337702407	732.651086181491	557.729955147157	916.722810295606	622.186898534918	624.267440267238	996.244438083925	564.397813035864	546.990861318169	986.377593732697	452.989485956631	566.452526404414	988.966174785700	759.019546313627	337.166844707201	907.986574687100	636.151769360410	284.231558891140	1002.902832868544	566.665719609975	343.333589873989	1009.359521977344	497.179378112558	353.579427348399	987.458081156016	423.394431023596	347.897826030323	903.536648746587	301.846868750069	302.883033213890	966.942768786231	196.365969262018	374.065587529119	904.847394420328	389.438849786916	570.605237794047	781.862067088857	355.130651235483	630.090842023738	761.487063154531	248.756773285159	577.318688298179	555.952799426769	192.327979223012	544.974428471794	723.348516418900	133.945936041566	589.028889522841	613.163281240026	133.463705747737	619.619705657497	787.071270987376	32.139110260807	617.660328109277	851.774066589743	37.474988417952	426.998240906717	920.420731768350	35.323371758433	341.417613580629	1003.902689647949	97.011982268627	362.901446716652	1131.077098512348	48.059649292521	327.127844050169	822.335083505083	1075.644494093541	184.088542358214	889.732141708253	823.922963147708	183.406906144773	979.295738624737	1096.867310074441	730.392706822732	1214.483917031009	1052.090130836104	647.586553809564	
90	7.730714285714	721.721336821084	1006.117274813578	479.481536087164	870.582004419565	1432.339447112545	286.235042754752	991.335374603342	1367.081030292987	436.331639534399	923.180693269543	1441.522476063546	615.743186199276	866.174720855696	1492.590271576216	441.338013645159	951.732880489980	936.231057795906	580.912079035946	925.027898763020	962.519125710907	309.693759161385	997.871342867413	736.109704242650	556.320538246027	925.221774440046	623.862665821372	623.221176723660	1006.511750830302	567.880001989708	545.988778484699	998.657215871374	455.365370324501	565.562506733475	986.905749264728	758.093550456164	335.031399658749	904.575326777841	636.236322147352	282.684361680756	998.663069910733	565.843050326836	341.751221535668	1004.351906893739	496.427274353107	352.111529388929	982.144415518316	422.804027018619	346.641862251989	897.544254921797	301.582000258015	301.926933405823	960.313383142426	195.972912939136	373.503571742690	915.742168243184	392.099573774268	569.582043886469	791.641651989173	361.182524141249	628.880798940282	768.593587224955	255.328151518259	576.513824703854	561.997295263234	206.478220789242	543.938732058310	726.950585463424	140.626875250394	588.243004717714	616.521486209572	145.021823772025	618.734516744996	785.978789046026	33.501680922987	617.190112151262	844.431380911406	37.455843025545	426.924945788968	913.057559728458	35.227789852722	341.332769006498	996.652237894892	96.799645515288	362.806483150969	1123.808567749681	47.651980298589	327.079866376705	829.009264642588	1075.416949125843	180.259746923900	904.869705626395	825.922382258353	180.009091680251	969.030661819003	1095.441246724293	728.692304608360	1202.002447241393	1032.168250866880	649.215276255028	
91	7.742857142857	720.907690471285	1006.301396127550	477.284794329527	871.910384830392	1432.604919240688	283.997779961605	991.214859239249	1367.354661464166	435.234802461956	921.616669227882	1441.755097003051	614.148602338157	866.275600165003	1493.050999942459	439.190109312403	950.633241014097	936.870255795541	579.429843318149	924.864739669994	962.823146686018	308.338166475093	1002.339955704296	739.865654323155	554.789984742518	933.535500606688	625.990515597388	622.198813772369	1016.399795181516	571.891272194938	544.916842259637	1010.796568199557	458.386761460751	564.565138327368	984.751773551837	757.252040468348	333.145705308456	901.094380780996	636.395607184385	281.255690111103	994.272093905385	565.063522568131	340.353321275930	999.174041710790	495.720903255472	350.817135762130	976.690029860217	422.287167994992	345.515907480970	891.466921318098	301.381808466186	301.059375496317	953.646609827039	195.640442652817	372.978738739410	926.749718691363	395.189137830703	568.519026133334	801.765412847309	367.161158476270	627.657095296019	776.429822303125	261.826656835567	575.629401278003	569.146103184207	219.330522283699	542.878889089381	731.851734421688	147.381754196778	587.335599729032	621.375106762834	155.780121333899	617.770171971654	786.894091561146	35.687713123547	616.501476644524	837.102058909735	37.461759187658	426.839555506438	905.714576796842	35.155883637850	341.246397934467	989.413658436900	96.619648460174	362.701206618244	1116.547565288298	47.279216501918	327.020194911166	835.729543889269	1075.369888227351	176.544435863052	920.141363879756	828.429292170858	176.747551824352	958.841760622284	1094.139853889876	726.985678009239	1187.962757054746	1011.969668056889	651.291717998273	
92	7.755000000000	720.069581318136	1006.561421722938	475.190686336665	873.165760900988	1432.951200081621	281.978144280651	991.025724746905	1367.668208506352	434.311987348067	920.032283146351	1441.996239959162	612.741722177022	866.371772646754	1493.573901463617	437.253601570715	949.473366587270	937.627037750888	578.013681797429	924.614446659611	963.222607446094	307.023848994423	1006.418197003632	743.900791527083	553.125097282794	941.563537181110	628.569590444922	621.198376306174	1025.806873553235	576.406587601157	543.776452792270	1022.685281427080	462.035898639574	563.507795440780	982.544567910597	756.493623462449	331.468500558545	897.500701529301	636.621001925262	279.972623418288	989.711952608521	564.317160522172	339.129646442453	993.812410599473	495.067602989794	349.721039572720	971.083799777779	421.854749998611	344.540749819889	885.291888804980	301.259157211015	300.311653879903	946.934134573284	195.376769267510	372.505522341043	937.788421563993	398.678733141162	567.466831655116	812.138911633362	372.937625339641	626.464107893118	784.993005390521	268.061673027218	574.719815460270	577.321587370294	230.486290286829	541.862560437148	738.156429780884	153.937752416872	586.373771869569	627.750144550073	165.342165435736	616.777143572761	790.053928835471	38.600985540149	615.607032723780	829.780653827104	37.489248898945	426.744966897779	898.387105840692	35.107408923935	341.158930275336	982.177672811867	96.475714655792	362.586593935604	1109.286060436329	46.955752226210	326.947363283146	842.492946253845	1075.549304473547	172.970597103731	935.486894278425	831.500782383992	173.648764614966	948.804216275362	1093.024727833623	725.298702569490	1172.286500133585	991.690267335922	653.866261891953	
